<?xml version="1.0" encoding="UTF-8" standalone="no" ?>
<!DOCTYPE svg PUBLIC "-//W3C//DTD SVG 1.1//EN" "http://www.w3.org/Graphics/SVG/1.1/DTD/svg11.dtd">
<svg xmlns="http://www.w3.org/2000/svg" xmlns:xlink="http://www.w3.org/1999/xlink" version="1.1" width="1280" height="1024" viewBox="0 0 1280 1024" xml:space="preserve">
<desc>Created with Fabric.js 5.3.0</desc>
<defs>
</defs>
<g transform="matrix(1 0 0 1 640 512)" id="background-logo"  >
<rect style="stroke: none; stroke-width: 0; stroke-dasharray: none; stroke-linecap: butt; stroke-dashoffset: 0; stroke-linejoin: miter; stroke-miterlimit: 4; fill: rgb(23,23,23); fill-rule: nonzero; opacity: 1;"  paint-order="stroke"  x="-640" y="-512" rx="0" ry="0" width="1280" height="1024" />
</g>
<g transform="matrix(1.9211538461538462 0 0 1.9211538461538462 640.0422653846153 641.7690637585847)" id="text-logo"  >
<g style=""  paint-order="stroke"   >
		<g transform="matrix(1 0 0 1 0 0)" id="text-logo-path-0"  >
<path style="stroke: none; stroke-width: 0.4680851063829785; stroke-dasharray: none; stroke-linecap: butt; stroke-dashoffset: 0; stroke-linejoin: miter; stroke-miterlimit: 4; fill: rgb(156,156,156); fill-rule: nonzero; opacity: 1;"  paint-order="stroke"  transform=" translate(-211.44, 15.18)" d="M 13.86 0 L 21.78 0 L 33.44 -30.8 L 25.96 -30.8 L 17.82 -9.28 L 9.68 -30.8 L 2.2 -30.8 Z M 46.95 0 L 54.43 0 L 54.43 -30.8 L 46.95 -30.8 Z M 79.6 0 L 87.52 0 L 99.18 -30.8 L 91.7 -30.8 L 83.56 -9.28 L 75.42 -30.8 L 67.94 -30.8 Z M 112.68 0 L 137.76 0 L 137.76 -6.16 L 120.16 -6.16 L 120.16 -12.32 L 133.36 -12.32 L 133.36 -18.48 L 120.16 -18.48 L 120.16 -24.64 L 137.76 -24.64 L 137.76 -30.8 L 112.68 -30.8 Z M 151.27 0 L 158.75 0 L 158.75 -11.04 L 160.42 -12.67 L 171.51 0 L 180.75 0 L 165.4 -17.51 L 178.99 -30.8 L 169.75 -30.8 L 158.75 -20.06 L 158.75 -30.8 L 151.27 -30.8 Z M 212.17 0 L 219.65 0 L 219.65 -11.04 L 221.32 -12.67 L 232.41 0 L 241.65 0 L 226.29 -17.51 L 239.89 -30.8 L 230.65 -30.8 L 219.65 -20.06 L 219.65 -30.8 L 212.17 -30.8 Z M 269.94 0.44 C 279.8 0.44 284.68 -4.18 284.68 -14.34 L 284.64 -30.8 L 277.16 -30.8 L 277.16 -12.98 C 277.16 -8.1 274.87 -5.72 269.94 -5.72 C 265.06 -5.72 262.68 -8.01 262.68 -12.98 L 262.64 -30.8 L 255.16 -30.8 L 255.16 -14.34 C 255.16 -4.49 259.78 0.44 269.94 0.44 Z M 312.84 0 L 320.94 0 L 328.11 -17.12 L 328.11 0 L 335.59 0 L 335.59 -30.8 L 326.35 -30.8 L 316.89 -8.18 L 307.43 -30.8 L 298.19 -30.8 L 298.19 0 L 305.67 0 L 305.67 -17.12 Z M 372.86 0 L 380.34 0 L 368.68 -30.8 L 360.76 -30.8 L 349.1 0 L 356.58 0 L 358.73 -5.72 L 370.7 -5.72 Z M 361.06 -11.88 L 364.72 -21.52 L 368.37 -11.88 Z M 393.84 0 L 401.32 0 L 401.32 -10.12 L 406.91 -10.12 L 412.76 0 L 420.68 0 L 414.44 -10.82 C 418.22 -12.14 420.11 -15.4 420.11 -20.55 C 420.11 -27.37 416.68 -30.8 409.82 -30.8 L 393.84 -30.8 Z M 401.32 -16.28 L 401.32 -24.64 L 409.77 -24.64 C 411.58 -24.64 412.63 -23.28 412.63 -20.5 C 412.63 -17.69 411.66 -16.28 409.77 -16.28 Z" stroke-linecap="round" />
</g>
</g>
</g>
<g transform="matrix(1.9211538461538462 0 0 1.9211538461538462 640 425.10894082198956)" id="tagline-83fdfb2a-8044-4ad8-b129-1c6be14b1c43-logo"  >
<g style=""  paint-order="stroke"   >
		<g transform="matrix(1 0 0 1 0 0)" id="tagline-83fdfb2a-8044-4ad8-b129-1c6be14b1c43-logo-path-0"  >
<linearGradient id="SVGID_211189" gradientUnits="userSpaceOnUse" gradientTransform="matrix(1 0 0 1 7.749999999999986 -108.5)"  x1="-7.750000000000028" y1="-27.766699999999986" x2="-7.750000000000028" y2="147.2333">
<stop offset="0%" style="stop-color:rgb(172,172,172);stop-opacity: 1"/>
<stop offset="100%" style="stop-color:rgb(143,143,143);stop-opacity: 1"/>
</linearGradient>
<path style="stroke: rgb(255,255,255); stroke-width: 0; stroke-dasharray: none; stroke-linecap: butt; stroke-dashoffset: 0; stroke-linejoin: miter; stroke-miterlimit: 4; fill: url(#SVGID_211189); fill-rule: nonzero; opacity: 1;"  paint-order="stroke"  transform=" translate(-130.2, 54.25)" d="M 48.83 0 L 76.72 0 L 117.8 -108.5 L 91.45 -108.5 L 62.77 -32.7 L 34.1 -108.5 L 7.75 -108.5 Z M 148.8 0 L 175.15 0 L 175.15 -38.91 L 181.04 -44.64 L 220.1 0 L 252.65 0 L 198.56 -61.69 L 246.45 -108.5 L 213.9 -108.5 L 175.15 -70.68 L 175.15 -108.5 L 148.8 -108.5 Z" stroke-linecap="round" />
</g>
</g>
</g>
</svg>